{
  "accessors": [
    {
      "bufferView": 2,
      "componentType": 5126,
      "count": 816,
      "max": [
        0.26976919174194336,
        0.2572985887527466,
        0.10000000894069672
      ],
      "min": [
        -0.23023080825805664,
        -0.2427014261484146,
        -0.09999999403953552
      ],
      "type": "VEC3"
    },
    {
      "bufferView": 2,
      "byteOffset": 9792,
      "componentType": 5126,
      "count": 816,
      "max": [
        1.0,
        1.0,
        1.0
      ],
      "min": [
        -1.0,
        -1.0,
        -1.0
      ],
      "type": "VEC3"
    },
    {
      "bufferView": 1,
      "componentType": 5126,
      "count": 816,
      "max": [
        0.4999999701976776,
        0.4951196312904358
      ],
      "min": [
        0.4999999701976776,
        0.495119571685791
      ],
      "type": "VEC2"
    },
    {
      "bufferView": 0,
      "componentType": 5125,
      "count": 2424,
      "type": "SCALAR"
    },
    {
      "bufferView": 2,
      "byteOffset": 19584,
      "componentType": 5126,
      "count": 628,
      "max": [
        0.4461820125579834,
        0.28924161195755005,
        0.09999999403953552
      ],
      "min": [
        -0.3038179874420166,
        -0.21075838804244995,
        -0.10000000894069672
      ],
      "type": "VEC3"
    },
    {
      "bufferView": 2,
      "byteOffset": 27120,
      "componentType": 5126,
      "count": 628,
      "max": [
        1.0,
        1.0,
        1.0
      ],
      "min": [
        -1.0,
        -1.0,
        -1.0
      ],
      "type": "VEC3"
    },
    {
      "bufferView": 1,
      "byteOffset": 6528,
      "componentType": 5126,
      "count": 628,
      "max": [
        0.4999999701976776,
        0.4951196312904358
      ],
      "min": [
        0.4999999701976776,
        0.495119571685791
      ],
      "type": "VEC2"
    },
    {
      "bufferView": 0,
      "byteOffset": 9696,
      "componentType": 5125,
      "count": 1836,
      "type": "SCALAR"
    },
    {
      "bufferView": 2,
      "byteOffset": 34656,
      "componentType": 5126,
      "count": 768,
      "max": [
        0.25,
        0.24999991059303284,
        0.10000000149011612
      ],
      "min": [
        -0.2500000596046448,
        -0.25000008940696716,
        -0.10000000149011612
      ],
      "type": "VEC3"
    },
    {
      "bufferView": 2,
      "byteOffset": 43872,
      "componentType": 5126,
      "count": 768,
      "max": [
        1.0,
        1.0,
        1.0
      ],
      "min": [
        -1.0,
        -1.0,
        -1.0
      ],
      "type": "VEC3"
    },
    {
      "bufferView": 1,
      "byteOffset": 11552,
      "componentType": 5126,
      "count": 768,
      "max": [
        0.76141756772995,
        0.9155218005180359
      ],
      "min": [
        0.76141756772995,
        0.9155217409133911
      ],
      "type": "VEC2"
    },
    {
      "bufferView": 0,
      "byteOffset": 17040,
      "componentType": 5125,
      "count": 2304,
      "type": "SCALAR"
    },
    {
      "bufferView": 2,
      "byteOffset": 53088,
      "componentType": 5126,
      "count": 630,
      "max": [
        0.446181982755661,
        0.28924164175987244,
        0.10000000149011612
      ],
      "min": [
        -0.303818017244339,
        -0.21075835824012756,
        -0.10000000149011612
      ],
      "type": "VEC3"
    },
    {
      "bufferView": 2,
      "byteOffset": 60648,
      "componentType": 5126,
      "count": 630,
      "max": [
        1.0,
        1.0,
        1.0
      ],
      "min": [
        -1.0,
        -1.0,
        -1.0
      ],
      "type": "VEC3"
    },
    {
      "bufferView": 1,
      "byteOffset": 17696,
      "componentType": 5126,
      "count": 630,
      "max": [
        0.4999999701976776,
        0.4951196312904358
      ],
      "min": [
        0.4999999701976776,
        0.495119571685791
      ],
      "type": "VEC2"
    },
    {
      "bufferView": 0,
      "byteOffset": 26256,
      "componentType": 5125,
      "count": 1836,
      "type": "SCALAR"
    },
    {
      "bufferView": 2,
      "byteOffset": 68208,
      "componentType": 5126,
      "count": 24,
      "max": [
        0.015000104904174805,
        0.04500000178813934,
        0.014999999664723873
      ],
      "min": [
        -0.015000104904174805,
        -0.044999994337558746,
        -0.014999999664723873
      ],
      "type": "VEC3"
    },
    {
      "bufferView": 2,
      "byteOffset": 68496,
      "componentType": 5126,
      "count": 24,
      "max": [
        1.0,
        1.0,
        1.0
      ],
      "min": [
        -1.0,
        -1.0,
        -1.0
      ],
      "type": "VEC3"
    },
    {
      "bufferView": 1,
      "byteOffset": 22736,
      "componentType": 5126,
      "count": 24,
      "max": [
        0.7638158798217773,
        0.9205021858215332
      ],
      "min": [
        0.7638158798217773,
        0.9205021858215332
      ],
      "type": "VEC2"
    },
    {
      "bufferView": 0,
      "byteOffset": 33600,
      "componentType": 5125,
      "count": 36,
      "type": "SCALAR"
    },
    {
      "bufferView": 2,
      "byteOffset": 68784,
      "componentType": 5126,
      "count": 384,
      "max": [
        0.01874995231628418,
        0.018750011920928955,
        0.014999999664723873
      ],
      "min": [
        -0.01874995231628418,
        -0.01874999701976776,
        -0.014999999664723873
      ],
      "type": "VEC3"
    },
    {
      "bufferView": 2,
      "byteOffset": 73392,
      "componentType": 5126,
      "count": 384,
      "max": [
        1.0,
        1.0,
        1.0
      ],
      "min": [
        -1.0,
        -1.0,
        -1.0
      ],
      "type": "VEC3"
    },
    {
      "bufferView": 1,
      "byteOffset": 22928,
      "componentType": 5126,
      "count": 384,
      "max": [
        0.7638158798217773,
        0.9205021858215332
      ],
      "min": [
        0.7638158798217773,
        0.9205021858215332
      ],
      "type": "VEC2"
    },
    {
      "bufferView": 0,
      "byteOffset": 33744,
      "componentType": 5125,
      "count": 1140,
      "type": "SCALAR"
    },
    {
      "bufferView": 2,
      "byteOffset": 78000,
      "componentType": 5126,
      "count": 442,
      "max": [
        0.08883142471313477,
        0.07822848111391068,
        0.015000000596046448
      ],
      "min": [
        -0.07616853713989258,
        -0.1317714899778366,
        -0.014999998733401299
      ],
      "type": "VEC3"
    },
    {
      "bufferView": 2,
      "byteOffset": 83304,
      "componentType": 5126,
      "count": 442,
      "max": [
        1.0,
        1.0,
        1.0
      ],
      "min": [
        -1.0,
        -1.0,
        -1.0
      ],
      "type": "VEC3"
    },
    {
      "bufferView": 1,
      "byteOffset": 26000,
      "componentType": 5126,
      "count": 442,
      "max": [
        0.4999999701976776,
        0.4988144040107727
      ],
      "min": [
        0.4999999701976776,
        0.49881434440612793
      ],
      "type": "VEC2"
    },
    {
      "bufferView": 0,
      "byteOffset": 38304,
      "componentType": 5125,
      "count": 1260,
      "type": "SCALAR"
    },
    {
      "bufferView": 2,
      "byteOffset": 88608,
      "componentType": 5126,
      "count": 36,
      "max": [
        0.07500004768371582,
        0.09476365149021149,
        0.014999999664723873
      ],
      "min": [
        -0.07500004768371582,
        -0.06273636221885681,
        -0.014999999664723873
      ],
      "type": "VEC3"
    },
    {
      "bufferView": 2,
      "byteOffset": 89040,
      "componentType": 5126,
      "count": 36,
      "max": [
        0.9028599858283997,
        0.42993491888046265,
        1.0
      ],
      "min": [
        -0.9028609991073608,
        -1.0,
        -1.0
      ],
      "type": "VEC3"
    },
    {
      "bufferView": 1,
      "byteOffset": 29536,
      "componentType": 5126,
      "count": 36,
      "max": [
        0.7638158798217773,
        0.9205021858215332
      ],
      "min": [
        0.7638158798217773,
        0.9205021858215332
      ],
      "type": "VEC2"
    },
    {
      "bufferView": 0,
      "byteOffset": 43344,
      "componentType": 5125,
      "count": 60,
      "type": "SCALAR"
    },
    {
      "bufferView": 2,
      "byteOffset": 89472,
      "componentType": 5126,
      "count": 24,
      "max": [
        0.08624982833862305,
        0.015000000596046448,
        0.014999999664723873
      ],
      "min": [
        -0.08625006675720215,
        -0.015000000596046448,
        -0.014999999664723873
      ],
      "type": "VEC3"
    },
    {
      "bufferView": 2,
      "byteOffset": 89760,
      "componentType": 5126,
      "count": 24,
      "max": [
        1.0,
        1.0,
        1.0
      ],
      "min": [
        -1.0,
        -1.0,
        -1.0
      ],
      "type": "VEC3"
    },
    {
      "bufferView": 1,
      "byteOffset": 29824,
      "componentType": 5126,
      "count": 24,
      "max": [
        0.7638158798217773,
        0.9205021858215332
      ],
      "min": [
        0.7638158798217773,
        0.9205021858215332
      ],
      "type": "VEC2"
    },
    {
      "bufferView": 0,
      "byteOffset": 43584,
      "componentType": 5125,
      "count": 36,
      "type": "SCALAR"
    },
    {
      "bufferView": 2,
      "byteOffset": 90048,
      "componentType": 5126,
      "count": 48,
      "max": [
        0.08884596824645996,
        0.07500001043081284,
        0.014999999664723873
      ],
      "min": [
        -0.06115388870239258,
        -0.07499998807907104,
        -0.014999999664723873
      ],
      "type": "VEC3"
    },
    {
      "bufferView": 2,
      "byteOffset": 90624,
      "componentType": 5126,
      "count": 48,
      "max": [
        1.0,
        1.0,
        1.0
      ],
      "min": [
        -1.0,
        -1.0,
        -1.0
      ],
      "type": "VEC3"
    },
    {
      "bufferView": 1,
      "byteOffset": 30016,
      "componentType": 5126,
      "count": 48,
      "max": [
        0.7638158798217773,
        0.9205021858215332
      ],
      "min": [
        0.7638158798217773,
        0.9205021858215332
      ],
      "type": "VEC2"
    },
    {
      "bufferView": 0,
      "byteOffset": 43728,
      "componentType": 5125,
      "count": 84,
      "type": "SCALAR"
    },
    {
      "bufferView": 2,
      "byteOffset": 91200,
      "componentType": 5126,
      "count": 54,
      "max": [
        0.07503342628479004,
        0.05849333852529526,
        0.014999999664723873
      ],
      "min": [
        -0.0749666690826416,
        -0.09150665998458862,
        -0.014999999664723873
      ],
      "type": "VEC3"
    },
    {
      "bufferView": 2,
      "byteOffset": 91848,
      "componentType": 5126,
      "count": 54,
      "max": [
        1.0,
        1.0,
        1.0
      ],
      "min": [
        -1.0,
        -1.0,
        -1.0
      ],
      "type": "VEC3"
    },
    {
      "bufferView": 1,
      "byteOffset": 30400,
      "componentType": 5126,
      "count": 54,
      "max": [
        0.4999999701976776,
        0.4988143742084503
      ],
      "min": [
        0.4999999701976776,
        0.4988143742084503
      ],
      "type": "VEC2"
    },
    {
      "bufferView": 0,
      "byteOffset": 44064,
      "componentType": 5125,
      "count": 96,
      "type": "SCALAR"
    },
    {
      "bufferView": 2,
      "byteOffset": 92496,
      "componentType": 5126,
      "count": 68,
      "max": [
        0.12000000476837158,
        0.07551686465740204,
        0.014999999664723873
      ],
      "min": [
        -0.12000000476837158,
        -0.08948314189910889,
        -0.014999999664723873
      ],
      "type": "VEC3"
    },
    {
      "bufferView": 2,
      "byteOffset": 93312,
      "componentType": 5126,
      "count": 68,
      "max": [
        0.9028604030609131,
        1.0,
        1.0
      ],
      "min": [
        -0.9028604030609131,
        -0.43010714650154114,
        -1.0
      ],
      "type": "VEC3"
    },
    {
      "bufferView": 1,
      "byteOffset": 30832,
      "componentType": 5126,
      "count": 68,
      "max": [
        0.4999999701976776,
        0.4988144040107727
      ],
      "min": [
        0.4999999701976776,
        0.49881434440612793
      ],
      "type": "VEC2"
    },
    {
      "bufferView": 0,
      "byteOffset": 44448,
      "componentType": 5125,
      "count": 132,
      "type": "SCALAR"
    },
    {
      "bufferView": 2,
      "byteOffset": 94128,
      "componentType": 5126,
      "count": 24,
      "max": [
        0.0862499475479126,
        0.015000000596046448,
        0.014999999664723873
      ],
      "min": [
        -0.08625006675720215,
        -0.015000000596046448,
        -0.014999999664723873
      ],
      "type": "VEC3"
    },
    {
      "bufferView": 2,
      "byteOffset": 94416,
      "componentType": 5126,
      "count": 24,
      "max": [
        1.0,
        1.0,
        1.0
      ],
      "min": [
        -1.0,
        -1.0,
        -1.0
      ],
      "type": "VEC3"
    },
    {
      "bufferView": 1,
      "byteOffset": 31376,
      "componentType": 5126,
      "count": 24,
      "max": [
        0.7638158798217773,
        0.9205021858215332
      ],
      "min": [
        0.7638158798217773,
        0.9205021858215332
      ],
      "type": "VEC2"
    },
    {
      "bufferView": 0,
      "byteOffset": 44976,
      "componentType": 5125,
      "count": 36,
      "type": "SCALAR"
    },
    {
      "bufferView": 2,
      "byteOffset": 94704,
      "componentType": 5126,
      "count": 48,
      "max": [
        0.08884608745574951,
        0.07500001043081284,
        0.014999999664723873
      ],
      "min": [
        -0.06115388870239258,
        -0.07499998807907104,
        -0.014999999664723873
      ],
      "type": "VEC3"
    },
    {
      "bufferView": 2,
      "byteOffset": 95280,
      "componentType": 5126,
      "count": 48,
      "max": [
        1.0,
        1.0,
        1.0
      ],
      "min": [
        -1.0,
        -1.0,
        -1.0
      ],
      "type": "VEC3"
    },
    {
      "bufferView": 1,
      "byteOffset": 31568,
      "componentType": 5126,
      "count": 48,
      "max": [
        0.7638158798217773,
        0.9205021858215332
      ],
      "min": [
        0.7638158798217773,
        0.9205021858215332
      ],
      "type": "VEC2"
    },
    {
      "bufferView": 0,
      "byteOffset": 45120,
      "componentType": 5125,
      "count": 84,
      "type": "SCALAR"
    },
    {
      "bufferView": 2,
      "byteOffset": 95856,
      "componentType": 5126,
      "count": 60,
      "max": [
        0.07500004768371582,
        0.07499999552965164,
        0.014999999664723873
      ],
      "min": [
        -0.07500004768371582,
        -0.07500000298023224,
        -0.014999999664723873
      ],
      "type": "VEC3"
    },
    {
      "bufferView": 2,
      "byteOffset": 96576,
      "componentType": 5126,
      "count": 60,
      "max": [
        1.0,
        1.0,
        1.0
      ],
      "min": [
        -1.0,
        -1.0,
        -1.0
      ],
      "type": "VEC3"
    },
    {
      "bufferView": 1,
      "byteOffset": 31952,
      "componentType": 5126,
      "count": 60,
      "max": [
        0.4999999701976776,
        0.4988144040107727
      ],
      "min": [
        0.4999999701976776,
        0.4988143742084503
      ],
      "type": "VEC2"
    },
    {
      "bufferView": 0,
      "byteOffset": 45456,
      "componentType": 5125,
      "count": 108,
      "type": "SCALAR"
    },
    {
      "bufferView": 2,
      "byteOffset": 97296,
      "componentType": 5126,
      "count": 54,
      "max": [
        0.07502669095993042,
        0.0822608694434166,
        0.014999999664723873
      ],
      "min": [
        -0.07497328519821167,
        -0.1277391016483307,
        -0.014999999664723873
      ],
      "type": "VEC3"
    },
    {
      "bufferView": 2,
      "byteOffset": 97944,
      "componentType": 5126,
      "count": 54,
      "max": [
        1.0,
        1.0,
        1.0
      ],
      "min": [
        -1.0,
        -1.0,
        -1.0
      ],
      "type": "VEC3"
    },
    {
      "bufferView": 1,
      "byteOffset": 32432,
      "componentType": 5126,
      "count": 54,
      "max": [
        0.4999999701976776,
        0.4988144040107727
      ],
      "min": [
        0.4999999701976776,
        0.4988143742084503
      ],
      "type": "VEC2"
    },
    {
      "bufferView": 0,
      "byteOffset": 45888,
      "componentType": 5125,
      "count": 96,
      "type": "SCALAR"
    },
    {
      "bufferView": 2,
      "byteOffset": 98592,
      "componentType": 5126,
      "count": 428,
      "max": [
        0.09403467178344727,
        0.07251062244176865,
        0.014999999664723873
      ],
      "min": [
        -0.055965304374694824,
        -0.13748934864997864,
        -0.014999999664723873
      ],
      "type": "VEC3"
    },
    {
      "bufferView": 2,
      "byteOffset": 103728,
      "componentType": 5126,
      "count": 428,
      "max": [
        1.0,
        1.0,
        1.0
      ],
      "min": [
        -1.0,
        -1.0,
        -1.0
      ],
      "type": "VEC3"
    },
    {
      "bufferView": 1,
      "byteOffset": 32864,
      "componentType": 5126,
      "count": 428,
      "max": [
        0.4999999701976776,
        0.4988144040107727
      ],
      "min": [
        0.4999999701976776,
        0.4988143742084503
      ],
      "type": "VEC2"
    },
    {
      "bufferView": 0,
      "byteOffset": 46272,
      "componentType": 5125,
      "count": 1236,
      "type": "SCALAR"
    },
    {
      "bufferView": 2,
      "byteOffset": 108864,
      "componentType": 5126,
      "count": 430,
      "max": [
        0.09403473138809204,
        0.07251063734292984,
        0.015000000596046448
      ],
      "min": [
        -0.05596524477005005,
        -0.13748933374881744,
        -0.014999998733401299
      ],
      "type": "VEC3"
    },
    {
      "bufferView": 2,
      "byteOffset": 114024,
      "componentType": 5126,
      "count": 430,
      "max": [
        1.0,
        1.0,
        1.0
      ],
      "min": [
        -1.0,
        -1.0,
        -1.0
      ],
      "type": "VEC3"
    },
    {
      "bufferView": 1,
      "byteOffset": 36288,
      "componentType": 5126,
      "count": 430,
      "max": [
        0.4999999701976776,
        0.4988144040107727
      ],
      "min": [
        0.4999999701976776,
        0.49881434440612793
      ],
      "type": "VEC2"
    },
    {
      "bufferView": 0,
      "byteOffset": 51216,
      "componentType": 5125,
      "count": 1236,
      "type": "SCALAR"
    },
    {
      "bufferView": 2,
      "byteOffset": 119184,
      "componentType": 5126,
      "count": 36,
      "max": [
        0.07500001788139343,
        0.0947636216878891,
        0.014999999664723873
      ],
      "min": [
        -0.07499995827674866,
        -0.0627363920211792,
        -0.014999999664723873
      ],
      "type": "VEC3"
    },
    {
      "bufferView": 2,
      "byteOffset": 119616,
      "componentType": 5126,
      "count": 36,
      "max": [
        0.9028604030609131,
        0.4299337863922119,
        1.0
      ],
      "min": [
        -0.9028607606887817,
        -1.0,
        -1.0
      ],
      "type": "VEC3"
    },
    {
      "bufferView": 1,
      "byteOffset": 39728,
      "componentType": 5126,
      "count": 36,
      "max": [
        0.7638158798217773,
        0.9205021858215332
      ],
      "min": [
        0.7638158798217773,
        0.9205021858215332
      ],
      "type": "VEC2"
    },
    {
      "bufferView": 0,
      "byteOffset": 56160,
      "componentType": 5125,
      "count": 60,
      "type": "SCALAR"
    },
    {
      "bufferView": 2,
      "byteOffset": 120048,
      "componentType": 5126,
      "count": 72,
      "max": [
        0.07499992847442627,
        0.07499999552965164,
        0.014999999664723873
      ],
      "min": [
        -0.07500004768371582,
        -0.07500000298023224,
        -0.014999999664723873
      ],
      "type": "VEC3"
    },
    {
      "bufferView": 2,
      "byteOffset": 120912,
      "componentType": 5126,
      "count": 72,
      "max": [
        1.0,
        1.0,
        1.0
      ],
      "min": [
        -1.0,
        -1.0,
        -1.0
      ],
      "type": "VEC3"
    },
    {
      "bufferView": 1,
      "byteOffset": 40016,
      "componentType": 5126,
      "count": 72,
      "max": [
        0.4999999701976776,
        0.4988144040107727
      ],
      "min": [
        0.4999999701976776,
        0.49881434440612793
      ],
      "type": "VEC2"
    },
    {
      "bufferView": 0,
      "byteOffset": 56400,
      "componentType": 5125,
      "count": 132,
      "type": "SCALAR"
    },
    {
      "bufferView": 3,
      "componentType": 5126,
      "count": 31,
      "max": [
        1.0
      ],
      "min": [
        0.0
      ],
      "type": "SCALAR"
    },
    {
      "bufferView": 4,
      "componentType": 5126,
      "count": 31,
      "max": [
        407.6245422363281,
        -11.373800277709961,
        -100.54539489746094
      ],
      "min": [
        407.6245422363281,
        -1208.690185546875,
        -100.54539489746094
      ],
      "type": "VEC3"
    },
    {
      "bufferView": 3,
      "byteOffset": 124,
      "componentType": 5126,
      "count": 31,
      "max": [
        1.0
      ],
      "min": [
        0.0
      ],
      "type": "SCALAR"
    },
    {
      "bufferView": 4,
      "byteOffset": 372,
      "componentType": 5126,
      "count": 31,
      "max": [
        4000.0,
        4000.0,
        4000.0
      ],
      "min": [
        200.0,
        200.0,
        200.0
      ],
      "type": "VEC3"
    },
    {
      "bufferView": 3,
      "byteOffset": 248,
      "componentType": 5126,
      "count": 13,
      "max": [
        1.0
      ],
      "min": [
        0.0
      ],
      "type": "SCALAR"
    },
    {
      "bufferView": 5,
      "componentType": 5126,
      "count": 13,
      "max": [
        -3.774895063202166e-08,
        -0.0,
        0.0,
        1.0
      ],
      "min": [
        -3.774895063202166e-08,
        -0.0,
        0.0,
        1.0
      ],
      "type": "VEC4"
    },
    {
      "bufferView": 3,
      "byteOffset": 300,
      "componentType": 5126,
      "count": 31,
      "max": [
        1.0
      ],
      "min": [
        0.0
      ],
      "type": "SCALAR"
    },
    {
      "bufferView": 4,
      "byteOffset": 744,
      "componentType": 5126,
      "count": 31,
      "max": [
        258.0231018066406,
        -11.373800277709961,
        -24.270143508911133
      ],
      "min": [
        258.0231018066406,
        -1208.690185546875,
        -24.270143508911133
      ],
      "type": "VEC3"
    },
    {
      "bufferView": 3,
      "byteOffset": 424,
      "componentType": 5126,
      "count": 31,
      "max": [
        1.0
      ],
      "min": [
        0.0
      ],
      "type": "SCALAR"
    },
    {
      "bufferView": 4,
      "byteOffset": 1116,
      "componentType": 5126,
      "count": 31,
      "max": [
        4000.0,
        4000.0,
        4000.0
      ],
      "min": [
        200.0,
        200.0,
        200.0
      ],
      "type": "VEC3"
    },
    {
      "bufferView": 3,
      "byteOffset": 548,
      "componentType": 5126,
      "count": 31,
      "max": [
        1.0
      ],
      "min": [
        0.0
      ],
      "type": "SCALAR"
    },
    {
      "bufferView": 4,
      "byteOffset": 1488,
      "componentType": 5126,
      "count": 31,
      "max": [
        180.38180541992188,
        -11.373800277709961,
        -21.075838088989258
      ],
      "min": [
        180.38180541992188,
        -1208.690185546875,
        -21.075838088989258
      ],
      "type": "VEC3"
    },
    {
      "bufferView": 3,
      "byteOffset": 672,
      "componentType": 5126,
      "count": 31,
      "max": [
        1.0
      ],
      "min": [
        0.0
      ],
      "type": "SCALAR"
    },
    {
      "bufferView": 4,
      "byteOffset": 1860,
      "componentType": 5126,
      "count": 31,
      "max": [
        4000.0,
        4000.0,
        4000.0
      ],
      "min": [
        200.0,
        200.0,
        200.0
      ],
      "type": "VEC3"
    },
    {
      "bufferView": 3,
      "byteOffset": 796,
      "componentType": 5126,
      "count": 31,
      "max": [
        1.0
      ],
      "min": [
        0.0
      ],
      "type": "SCALAR"
    },
    {
      "bufferView": 4,
      "byteOffset": 2232,
      "componentType": 5126,
      "count": 31,
      "max": [
        115.00000762939453,
        -11.373800277709961,
        -25.000009536743164
      ],
      "min": [
        115.00000762939453,
        -1208.690185546875,
        -25.000009536743164
      ],
      "type": "VEC3"
    },
    {
      "bufferView": 3,
      "byteOffset": 920,
      "componentType": 5126,
      "count": 31,
      "max": [
        1.0
      ],
      "min": [
        0.0
      ],
      "type": "SCALAR"
    },
    {
      "bufferView": 4,
      "byteOffset": 2604,
      "componentType": 5126,
      "count": 31,
      "max": [
        4000.0,
        4000.0,
        4000.0
      ],
      "min": [
        200.0,
        200.0,
        200.0
      ],
      "type": "VEC3"
    },
    {
      "bufferView": 3,
      "byteOffset": 1044,
      "componentType": 5126,
      "count": 31,
      "max": [
        1.0
      ],
      "min": [
        0.0
      ],
      "type": "SCALAR"
    },
    {
      "bufferView": 4,
      "byteOffset": 2976,
      "componentType": 5126,
      "count": 31,
      "max": [
        35.38180160522461,
        -11.373800277709961,
        -21.075836181640625
      ],
      "min": [
        35.38180160522461,
        -1208.690185546875,
        -21.075836181640625
      ],
      "type": "VEC3"
    },
    {
      "bufferView": 3,
      "byteOffset": 1168,
      "componentType": 5126,
      "count": 31,
      "max": [
        1.0
      ],
      "min": [
        0.0
      ],
      "type": "SCALAR"
    },
    {
      "bufferView": 4,
      "byteOffset": 3348,
      "componentType": 5126,
      "count": 31,
      "max": [
        4000.0,
        4000.0,
        4000.0
      ],
      "min": [
        200.0,
        200.0,
        200.0
      ],
      "type": "VEC3"
    },
    {
      "bufferView": 3,
      "byteOffset": 1292,
      "componentType": 5126,
      "count": 31,
      "max": [
        1.0
      ],
      "min": [
        0.0
      ],
      "type": "SCALAR"
    },
    {
      "bufferView": 4,
      "byteOffset": 3720,
      "componentType": 5126,
      "count": 31,
      "max": [
        278.947998046875,
        -11.373800277709961,
        11.806838989257813
      ],
      "min": [
        278.947998046875,
        -1208.690185546875,
        11.806838989257813
      ],
      "type": "VEC3"
    },
    {
      "bufferView": 3,
      "byteOffset": 1416,
      "componentType": 5126,
      "count": 31,
      "max": [
        1.0
      ],
      "min": [
        0.0
      ],
      "type": "SCALAR"
    },
    {
      "bufferView": 4,
      "byteOffset": 4092,
      "componentType": 5126,
      "count": 31,
      "max": [
        4000.0,
        4000.0,
        4000.0
      ],
      "min": [
        200.0,
        200.0,
        200.0
      ],
      "type": "VEC3"
    },
    {
      "bufferView": 3,
      "byteOffset": 1540,
      "componentType": 5126,
      "count": 31,
      "max": [
        1.0
      ],
      "min": [
        0.0
      ],
      "type": "SCALAR"
    },
    {
      "bufferView": 4,
      "byteOffset": 4464,
      "componentType": 5126,
      "count": 31,
      "max": [
        278.947998046875,
        -11.373800277709961,
        20.431838989257813
      ],
      "min": [
        278.947998046875,
        -1208.690185546875,
        20.431838989257813
      ],
      "type": "VEC3"
    },
    {
      "bufferView": 3,
      "byteOffset": 1664,
      "componentType": 5126,
      "count": 31,
      "max": [
        1.0
      ],
      "min": [
        0.0
      ],
      "type": "SCALAR"
    },
    {
      "bufferView": 4,
      "byteOffset": 4836,
      "componentType": 5126,
      "count": 31,
      "max": [
        4000.0,
        4000.0,
        4000.0
      ],
      "min": [
        200.0,
        200.0,
        200.0
      ],
      "type": "VEC3"
    },
    {
      "bufferView": 3,
      "byteOffset": 1788,
      "componentType": 5126,
      "count": 31,
      "max": [
        1.0
      ],
      "min": [
        0.0
      ],
      "type": "SCALAR"
    },
    {
      "bufferView": 4,
      "byteOffset": 5208,
      "componentType": 5126,
      "count": 31,
      "max": [
        265.1898498535156,
        -11.373800277709961,
        15.129687309265137
      ],
      "min": [
        265.1898498535156,
        -1208.690185546875,
        15.129687309265137
      ],
      "type": "VEC3"
    },
    {
      "bufferView": 3,
      "byteOffset": 1912,
      "componentType": 5126,
      "count": 31,
      "max": [
        1.0
      ],
      "min": [
        0.0
      ],
      "type": "SCALAR"
    },
    {
      "bufferView": 4,
      "byteOffset": 5580,
      "componentType": 5126,
      "count": 31,
      "max": [
        4000.0,
        4000.0,
        4000.0
      ],
      "min": [
        200.0,
        200.0,
        200.0
      ],
      "type": "VEC3"
    },
    {
      "bufferView": 3,
      "byteOffset": 2036,
      "componentType": 5126,
      "count": 31,
      "max": [
        1.0
      ],
      "min": [
        0.0
      ],
      "type": "SCALAR"
    },
    {
      "bufferView": 4,
      "byteOffset": 5952,
      "componentType": 5126,
      "count": 31,
      "max": [
        247.07301330566406,
        -11.373800277709961,
        16.033203125
      ],
      "min": [
        247.07301330566406,
        -1208.690185546875,
        16.033203125
      ],
      "type": "VEC3"
    },
    {
      "bufferView": 3,
      "byteOffset": 2160,
      "componentType": 5126,
      "count": 31,
      "max": [
        1.0
      ],
      "min": [
        0.0
      ],
      "type": "SCALAR"
    },
    {
      "bufferView": 4,
      "byteOffset": 6324,
      "componentType": 5126,
      "count": 31,
      "max": [
        4000.0,
        4000.0,
        4000.0
      ],
      "min": [
        200.0,
        200.0,
        200.0
      ],
      "type": "VEC3"
    },
    {
      "bufferView": 3,
      "byteOffset": 2284,
      "componentType": 5126,
      "count": 31,
      "max": [
        1.0
      ],
      "min": [
        0.0
      ],
      "type": "SCALAR"
    },
    {
      "bufferView": 4,
      "byteOffset": 6696,
      "componentType": 5126,
      "count": 31,
      "max": [
        227.947998046875,
        -11.373800277709961,
        14.806838035583496
      ],
      "min": [
        227.947998046875,
        -1208.690185546875,
        14.806838035583496
      ],
      "type": "VEC3"
    },
    {
      "bufferView": 3,
      "byteOffset": 2408,
      "componentType": 5126,
      "count": 31,
      "max": [
        1.0
      ],
      "min": [
        0.0
      ],
      "type": "SCALAR"
    },
    {
      "bufferView": 4,
      "byteOffset": 7068,
      "componentType": 5126,
      "count": 31,
      "max": [
        4000.0,
        4000.0,
        4000.0
      ],
      "min": [
        200.0,
        200.0,
        200.0
      ],
      "type": "VEC3"
    },
    {
      "bufferView": 3,
      "byteOffset": 2532,
      "componentType": 5126,
      "count": 31,
      "max": [
        1.0
      ],
      "min": [
        0.0
      ],
      "type": "SCALAR"
    },
    {
      "bufferView": 4,
      "byteOffset": 7440,
      "componentType": 5126,
      "count": 31,
      "max": [
        218.68838500976563,
        -11.373800277709961,
        14.806839942932129
      ],
      "min": [
        218.68838500976563,
        -1208.690185546875,
        14.806839942932129
      ],
      "type": "VEC3"
    },
    {
      "bufferView": 3,
      "byteOffset": 2656,
      "componentType": 5126,
      "count": 31,
      "max": [
        1.0
      ],
      "min": [
        0.0
      ],
      "type": "SCALAR"
    },
    {
      "bufferView": 4,
      "byteOffset": 7812,
      "componentType": 5126,
      "count": 31,
      "max": [
        4000.0,
        4000.0,
        4000.0
      ],
      "min": [
        200.0,
        200.0,
        200.0
      ],
      "type": "VEC3"
    },
    {
      "bufferView": 3,
      "byteOffset": 2780,
      "componentType": 5126,
      "count": 31,
      "max": [
        1.0
      ],
      "min": [
        0.0
      ],
      "type": "SCALAR"
    },
    {
      "bufferView": 4,
      "byteOffset": 8184,
      "componentType": 5126,
      "count": 31,
      "max": [
        202.06967163085938,
        -11.373800277709961,
        13.156172752380371
      ],
      "min": [
        202.06967163085938,
        -1208.690185546875,
        13.156172752380371
      ],
      "type": "VEC3"
    },
    {
      "bufferView": 3,
      "byteOffset": 2904,
      "componentType": 5126,
      "count": 31,
      "max": [
        1.0
      ],
      "min": [
        0.0
      ],
      "type": "SCALAR"
    },
    {
      "bufferView": 4,
      "byteOffset": 8556,
      "componentType": 5126,
      "count": 31,
      "max": [
        4000.0,
        4000.0,
        4000.0
      ],
      "min": [
        200.0,
        200.0,
        200.0
      ],
      "type": "VEC3"
    },
    {
      "bufferView": 3,
      "byteOffset": 3028,
      "componentType": 5126,
      "count": 31,
      "max": [
        1.0
      ],
      "min": [
        0.0
      ],
      "type": "SCALAR"
    },
    {
      "bufferView": 4,
      "byteOffset": 8928,
      "componentType": 5126,
      "count": 31,
      "max": [
        167.572998046875,
        -11.373800277709961,
        14.10852336883545
      ],
      "min": [
        167.572998046875,
        -1208.690185546875,
        14.10852336883545
      ],
      "type": "VEC3"
    },
    {
      "bufferView": 3,
      "byteOffset": 3152,
      "componentType": 5126,
      "count": 31,
      "max": [
        1.0
      ],
      "min": [
        0.0
      ],
      "type": "SCALAR"
    },
    {
      "bufferView": 4,
      "byteOffset": 9300,
      "componentType": 5126,
      "count": 31,
      "max": [
        4000.0,
        4000.0,
        4000.0
      ],
      "min": [
        200.0,
        200.0,
        200.0
      ],
      "type": "VEC3"
    },
    {
      "bufferView": 3,
      "byteOffset": 3276,
      "componentType": 5126,
      "count": 31,
      "max": [
        1.0
      ],
      "min": [
        0.0
      ],
      "type": "SCALAR"
    },
    {
      "bufferView": 4,
      "byteOffset": 9672,
      "componentType": 5126,
      "count": 31,
      "max": [
        143.94801330566406,
        -11.373800277709961,
        14.806838035583496
      ],
      "min": [
        143.94801330566406,
        -1208.690185546875,
        14.806838035583496
      ],
      "type": "VEC3"
    },
    {
      "bufferView": 3,
      "byteOffset": 3400,
      "componentType": 5126,
      "count": 31,
      "max": [
        1.0
      ],
      "min": [
        0.0
      ],
      "type": "SCALAR"
    },
    {
      "bufferView": 4,
      "byteOffset": 10044,
      "componentType": 5126,
      "count": 31,
      "max": [
        4000.0,
        4000.0,
        4000.0
      ],
      "min": [
        200.0,
        200.0,
        200.0
      ],
      "type": "VEC3"
    },
    {
      "bufferView": 3,
      "byteOffset": 3524,
      "componentType": 5126,
      "count": 31,
      "max": [
        1.0
      ],
      "min": [
        0.0
      ],
      "type": "SCALAR"
    },
    {
      "bufferView": 4,
      "byteOffset": 10416,
      "componentType": 5126,
      "count": 31,
      "max": [
        134.68838500976563,
        -11.373800277709961,
        14.806839942932129
      ],
      "min": [
        134.68838500976563,
        -1208.690185546875,
        14.806839942932129
      ],
      "type": "VEC3"
    },
    {
      "bufferView": 3,
      "byteOffset": 3648,
      "componentType": 5126,
      "count": 31,
      "max": [
        1.0
      ],
      "min": [
        0.0
      ],
      "type": "SCALAR"
    },
    {
      "bufferView": 4,
      "byteOffset": 10788,
      "componentType": 5126,
      "count": 31,
      "max": [
        4000.0,
        4000.0,
        4000.0
      ],
      "min": [
        200.0,
        200.0,
        200.0
      ],
      "type": "VEC3"
    },
    {
      "bufferView": 3,
      "byteOffset": 3772,
      "componentType": 5126,
      "count": 31,
      "max": [
        1.0
      ],
      "min": [
        0.0
      ],
      "type": "SCALAR"
    },
    {
      "bufferView": 4,
      "byteOffset": 11160,
      "componentType": 5126,
      "count": 31,
      "max": [
        118.072998046875,
        -11.373800277709961,
        14.806838035583496
      ],
      "min": [
        118.072998046875,
        -1208.690185546875,
        14.806838035583496
      ],
      "type": "VEC3"
    },
    {
      "bufferView": 3,
      "byteOffset": 3896,
      "componentType": 5126,
      "count": 31,
      "max": [
        1.0
      ],
      "min": [
        0.0
      ],
      "type": "SCALAR"
    },
    {
      "bufferView": 4,
      "byteOffset": 11532,
      "componentType": 5126,
      "count": 31,
      "max": [
        4000.0,
        4000.0,
        4000.0
      ],
      "min": [
        200.0,
        200.0,
        200.0
      ],
      "type": "VEC3"
    },
    {
      "bufferView": 3,
      "byteOffset": 4020,
      "componentType": 5126,
      "count": 31,
      "max": [
        1.0
      ],
      "min": [
        0.0
      ],
      "type": "SCALAR"
    },
    {
      "bufferView": 4,
      "byteOffset": 11904,
      "componentType": 5126,
      "count": 31,
      "max": [
        88.07032775878906,
        -11.373800277709961,
        15.532925605773926
      ],
      "min": [
        88.07032775878906,
        -1208.690185546875,
        15.532925605773926
      ],
      "type": "VEC3"
    },
    {
      "bufferView": 3,
      "byteOffset": 4144,
      "componentType": 5126,
      "count": 31,
      "max": [
        1.0
      ],
      "min": [
        0.0
      ],
      "type": "SCALAR"
    },
    {
      "bufferView": 4,
      "byteOffset": 12276,
      "componentType": 5126,
      "count": 31,
      "max": [
        4000.0,
        4000.0,
        4000.0
      ],
      "min": [
        200.0,
        200.0,
        200.0
      ],
      "type": "VEC3"
    },
    {
      "bufferView": 3,
      "byteOffset": 4268,
      "componentType": 5126,
      "count": 31,
      "max": [
        1.0
      ],
      "min": [
        0.0
      ],
      "type": "SCALAR"
    },
    {
      "bufferView": 4,
      "byteOffset": 12648,
      "componentType": 5126,
      "count": 31,
      "max": [
        68.1695327758789,
        -11.373800277709961,
        14.557901382446289
      ],
      "min": [
        68.1695327758789,
        -1208.690185546875,
        14.557901382446289
      ],
      "type": "VEC3"
    },
    {
      "bufferView": 3,
      "byteOffset": 4392,
      "componentType": 5126,
      "count": 31,
      "max": [
        1.0
      ],
      "min": [
        0.0
      ],
      "type": "SCALAR"
    },
    {
      "bufferView": 4,
      "byteOffset": 13020,
      "componentType": 5126,
      "count": 31,
      "max": [
        4000.0,
        4000.0,
        4000.0
      ],
      "min": [
        200.0,
        200.0,
        200.0
      ],
      "type": "VEC3"
    },
    {
      "bufferView": 3,
      "byteOffset": 4516,
      "componentType": 5126,
      "count": 31,
      "max": [
        1.0
      ],
      "min": [
        0.0
      ],
      "type": "SCALAR"
    },
    {
      "bufferView": 4,
      "byteOffset": 13392,
      "componentType": 5126,
      "count": 31,
      "max": [
        50.169532775878906,
        -11.373800277709961,
        14.557902336120605
      ],
      "min": [
        50.169532775878906,
        -1208.690185546875,
        14.557902336120605
      ],
      "type": "VEC3"
    },
    {
      "bufferView": 3,
      "byteOffset": 4640,
      "componentType": 5126,
      "count": 31,
      "max": [
        1.0
      ],
      "min": [
        0.0
      ],
      "type": "SCALAR"
    },
    {
      "bufferView": 4,
      "byteOffset": 13764,
      "componentType": 5126,
      "count": 31,
      "max": [
        4000.0,
        4000.0,
        4000.0
      ],
      "min": [
        200.0,
        200.0,
        200.0
      ],
      "type": "VEC3"
    },
    {
      "bufferView": 3,
      "byteOffset": 4764,
      "componentType": 5126,
      "count": 31,
      "max": [
        1.0
      ],
      "min": [
        0.0
      ],
      "type": "SCALAR"
    },
    {
      "bufferView": 4,
      "byteOffset": 14136,
      "componentType": 5126,
      "count": 31,
      "max": [
        34.0730094909668,
        -11.373800277709961,
        16.033199310302734
      ],
      "min": [
        34.0730094909668,
        -1208.690185546875,
        16.033199310302734
      ],
      "type": "VEC3"
    },
    {
      "bufferView": 3,
      "byteOffset": 4888,
      "componentType": 5126,
      "count": 31,
      "max": [
        1.0
      ],
      "min": [
        0.0
      ],
      "type": "SCALAR"
    },
    {
      "bufferView": 4,
      "byteOffset": 14508,
      "componentType": 5126,
      "count": 31,
      "max": [
        4000.0,
        4000.0,
        4000.0
      ],
      "min": [
        200.0,
        200.0,
        200.0
      ],
      "type": "VEC3"
    },
    {
      "bufferView": 3,
      "byteOffset": 5012,
      "componentType": 5126,
      "count": 31,
      "max": [
        1.0
      ],
      "min": [
        0.0
      ],
      "type": "SCALAR"
    },
    {
      "bufferView": 4,
      "byteOffset": 14880,
      "componentType": 5126,
      "count": 31,
      "max": [
        16.07302474975586,
        -11.373800277709961,
        14.806838035583496
      ],
      "min": [
        16.07302474975586,
        -1208.690185546875,
        14.806838035583496
      ],
      "type": "VEC3"
    },
    {
      "bufferView": 3,
      "byteOffset": 5136,
      "componentType": 5126,
      "count": 31,
      "max": [
        1.0
      ],
      "min": [
        0.0
      ],
      "type": "SCALAR"
    },
    {
      "bufferView": 4,
      "byteOffset": 15252,
      "componentType": 5126,
      "count": 31,
      "max": [
        4000.0,
        4000.0,
        4000.0
      ],
      "min": [
        200.0,
        200.0,
        200.0
      ],
      "type": "VEC3"
    }
  ],
  "animations": [
    {
      "channels": [
        {
          "sampler": 0,
          "target": {
            "node": 4,
            "path": "translation"
          }
        },
        {
          "sampler": 1,
          "target": {
            "node": 4,
            "path": "scale"
          }
        },
        {
          "sampler": 2,
          "target": {
            "node": 4,
            "path": "rotation"
          }
        }
      ],
      "name": "Light|PlaneAction",
      "samplers": [
        {
          "input": 80,
          "interpolation": "LINEAR",
          "output": 81
        },
        {
          "input": 82,
          "interpolation": "LINEAR",
          "output": 83
        },
        {
          "input": 84,
          "interpolation": "LINEAR",
          "output": 85
        }
      ]
    },
    {
      "channels": [
        {
          "sampler": 0,
          "target": {
            "node": 9,
            "path": "translation"
          }
        },
        {
          "sampler": 1,
          "target": {
            "node": 9,
            "path": "scale"
          }
        }
      ],
      "name": "Text|PlaneAction",
      "samplers": [
        {
          "input": 86,
          "interpolation": "LINEAR",
          "output": 87
        },
        {
          "input": 88,
          "interpolation": "LINEAR",
          "output": 89
        }
      ]
    },
    {
      "channels": [
        {
          "sampler": 0,
          "target": {
            "node": 11,
            "path": "translation"
          }
        },
        {
          "sampler": 1,
          "target": {
            "node": 11,
            "path": "scale"
          }
        }
      ],
      "name": "Text.001|PlaneAction",
      "samplers": [
        {
          "input": 90,
          "interpolation": "LINEAR",
          "output": 91
        },
        {
          "input": 92,
          "interpolation": "LINEAR",
          "output": 93
        }
      ]
    },
    {
      "channels": [
        {
          "sampler": 0,
          "target": {
            "node": 13,
            "path": "translation"
          }
        },
        {
          "sampler": 1,
          "target": {
            "node": 13,
            "path": "scale"
          }
        }
      ],
      "name": "Text.002|PlaneAction",
      "samplers": [
        {
          "input": 94,
          "interpolation": "LINEAR",
          "output": 95
        },
        {
          "input": 96,
          "interpolation": "LINEAR",
          "output": 97
        }
      ]
    },
    {
      "channels": [
        {
          "sampler": 0,
          "target": {
            "node": 15,
            "path": "translation"
          }
        },
        {
          "sampler": 1,
          "target": {
            "node": 15,
            "path": "scale"
          }
        }
      ],
      "name": "Text.003|PlaneAction",
      "samplers": [
        {
          "input": 98,
          "interpolation": "LINEAR",
          "output": 99
        },
        {
          "input": 100,
          "interpolation": "LINEAR",
          "output": 101
        }
      ]
    },
    {
      "channels": [
        {
          "sampler": 0,
          "target": {
            "node": 17,
            "path": "translation"
          }
        },
        {
          "sampler": 1,
          "target": {
            "node": 17,
            "path": "scale"
          }
        }
      ],
      "name": "Text.004|PlaneAction",
      "samplers": [
        {
          "input": 102,
          "interpolation": "LINEAR",
          "output": 103
        },
        {
          "input": 104,
          "interpolation": "LINEAR",
          "output": 105
        }
      ]
    },
    {
      "channels": [
        {
          "sampler": 0,
          "target": {
            "node": 19,
            "path": "translation"
          }
        },
        {
          "sampler": 1,
          "target": {
            "node": 19,
            "path": "scale"
          }
        }
      ],
      "name": "Text.005|PlaneAction",
      "samplers": [
        {
          "input": 106,
          "interpolation": "LINEAR",
          "output": 107
        },
        {
          "input": 108,
          "interpolation": "LINEAR",
          "output": 109
        }
      ]
    },
    {
      "channels": [
        {
          "sampler": 0,
          "target": {
            "node": 21,
            "path": "translation"
          }
        },
        {
          "sampler": 1,
          "target": {
            "node": 21,
            "path": "scale"
          }
        }
      ],
      "name": "Text.006|PlaneAction",
      "samplers": [
        {
          "input": 110,
          "interpolation": "LINEAR",
          "output": 111
        },
        {
          "input": 112,
          "interpolation": "LINEAR",
          "output": 113
        }
      ]
    },
    {
      "channels": [
        {
          "sampler": 0,
          "target": {
            "node": 23,
            "path": "translation"
          }
        },
        {
          "sampler": 1,
          "target": {
            "node": 23,
            "path": "scale"
          }
        }
      ],
      "name": "Text.007|PlaneAction",
      "samplers": [
        {
          "input": 114,
          "interpolation": "LINEAR",
          "output": 115
        },
        {
          "input": 116,
          "interpolation": "LINEAR",
          "output": 117
        }
      ]
    },
    {
      "channels": [
        {
          "sampler": 0,
          "target": {
            "node": 25,
            "path": "translation"
          }
        },
        {
          "sampler": 1,
          "target": {
            "node": 25,
            "path": "scale"
          }
        }
      ],
      "name": "Text.008|PlaneAction",
      "samplers": [
        {
          "input": 118,
          "interpolation": "LINEAR",
          "output": 119
        },
        {
          "input": 120,
          "interpolation": "LINEAR",
          "output": 121
        }
      ]
    },
    {
      "channels": [
        {
          "sampler": 0,
          "target": {
            "node": 27,
            "path": "translation"
          }
        },
        {
          "sampler": 1,
          "target": {
            "node": 27,
            "path": "scale"
          }
        }
      ],
      "name": "Text.009|PlaneAction",
      "samplers": [
        {
          "input": 122,
          "interpolation": "LINEAR",
          "output": 123
        },
        {
          "input": 124,
          "interpolation": "LINEAR",
          "output": 125
        }
      ]
    },
    {
      "channels": [
        {
          "sampler": 0,
          "target": {
            "node": 29,
            "path": "translation"
          }
        },
        {
          "sampler": 1,
          "target": {
            "node": 29,
            "path": "scale"
          }
        }
      ],
      "name": "Text.010|PlaneAction",
      "samplers": [
        {
          "input": 126,
          "interpolation": "LINEAR",
          "output": 127
        },
        {
          "input": 128,
          "interpolation": "LINEAR",
          "output": 129
        }
      ]
    },
    {
      "channels": [
        {
          "sampler": 0,
          "target": {
            "node": 31,
            "path": "translation"
          }
        },
        {
          "sampler": 1,
          "target": {
            "node": 31,
            "path": "scale"
          }
        }
      ],
      "name": "Text.011|PlaneAction",
      "samplers": [
        {
          "input": 130,
          "interpolation": "LINEAR",
          "output": 131
        },
        {
          "input": 132,
          "interpolation": "LINEAR",
          "output": 133
        }
      ]
    },
    {
      "channels": [
        {
          "sampler": 0,
          "target": {
            "node": 33,
            "path": "translation"
          }
        },
        {
          "sampler": 1,
          "target": {
            "node": 33,
            "path": "scale"
          }
        }
      ],
      "name": "Text.012|PlaneAction",
      "samplers": [
        {
          "input": 134,
          "interpolation": "LINEAR",
          "output": 135
        },
        {
          "input": 136,
          "interpolation": "LINEAR",
          "output": 137
        }
      ]
    },
    {
      "channels": [
        {
          "sampler": 0,
          "target": {
            "node": 35,
            "path": "translation"
          }
        },
        {
          "sampler": 1,
          "target": {
            "node": 35,
            "path": "scale"
          }
        }
      ],
      "name": "Text.013|PlaneAction",
      "samplers": [
        {
          "input": 138,
          "interpolation": "LINEAR",
          "output": 139
        },
        {
          "input": 140,
          "interpolation": "LINEAR",
          "output": 141
        }
      ]
    },
    {
      "channels": [
        {
          "sampler": 0,
          "target": {
            "node": 37,
            "path": "translation"
          }
        },
        {
          "sampler": 1,
          "target": {
            "node": 37,
            "path": "scale"
          }
        }
      ],
      "name": "Text.014|PlaneAction",
      "samplers": [
        {
          "input": 142,
          "interpolation": "LINEAR",
          "output": 143
        },
        {
          "input": 144,
          "interpolation": "LINEAR",
          "output": 145
        }
      ]
    },
    {
      "channels": [
        {
          "sampler": 0,
          "target": {
            "node": 39,
            "path": "translation"
          }
        },
        {
          "sampler": 1,
          "target": {
            "node": 39,
            "path": "scale"
          }
        }
      ],
      "name": "Text.015|PlaneAction",
      "samplers": [
        {
          "input": 146,
          "interpolation": "LINEAR",
          "output": 147
        },
        {
          "input": 148,
          "interpolation": "LINEAR",
          "output": 149
        }
      ]
    },
    {
      "channels": [
        {
          "sampler": 0,
          "target": {
            "node": 41,
            "path": "translation"
          }
        },
        {
          "sampler": 1,
          "target": {
            "node": 41,
            "path": "scale"
          }
        }
      ],
      "name": "Text.016|PlaneAction",
      "samplers": [
        {
          "input": 150,
          "interpolation": "LINEAR",
          "output": 151
        },
        {
          "input": 152,
          "interpolation": "LINEAR",
          "output": 153
        }
      ]
    },
    {
      "channels": [
        {
          "sampler": 0,
          "target": {
            "node": 43,
            "path": "translation"
          }
        },
        {
          "sampler": 1,
          "target": {
            "node": 43,
            "path": "scale"
          }
        }
      ],
      "name": "Text.017|PlaneAction",
      "samplers": [
        {
          "input": 154,
          "interpolation": "LINEAR",
          "output": 155
        },
        {
          "input": 156,
          "interpolation": "LINEAR",
          "output": 157
        }
      ]
    },
    {
      "channels": [
        {
          "sampler": 0,
          "target": {
            "node": 45,
            "path": "translation"
          }
        },
        {
          "sampler": 1,
          "target": {
            "node": 45,
            "path": "scale"
          }
        }
      ],
      "name": "Text.018|PlaneAction",
      "samplers": [
        {
          "input": 158,
          "interpolation": "LINEAR",
          "output": 159
        },
        {
          "input": 160,
          "interpolation": "LINEAR",
          "output": 161
        }
      ]
    },
    {
      "channels": [
        {
          "sampler": 0,
          "target": {
            "node": 47,
            "path": "translation"
          }
        },
        {
          "sampler": 1,
          "target": {
            "node": 47,
            "path": "scale"
          }
        }
      ],
      "name": "Text.019|PlaneAction",
      "samplers": [
        {
          "input": 162,
          "interpolation": "LINEAR",
          "output": 163
        },
        {
          "input": 164,
          "interpolation": "LINEAR",
          "output": 165
        }
      ]
    }
  ],
  "asset": {
    "extras": {
      "author": "DodoBabypop (https://sketchfab.com/DodoBabypop)",
      "license": "SKETCHFAB Standard (https://sketchfab.com/licenses)",
      "source": "https://sketchfab.com/3d-models/squid-game-new-years-text-d6dcf4cc658746bb9864568b77bebe0a",
      "title": "Squid Game New Year's Text"
    },
    "generator": "Sketchfab-16.95.0",
    "version": "2.0"
  },
  "bufferViews": [
    {
      "buffer": 0,
      "byteLength": 56928,
      "name": "floatBufferViews",
      "target": 34963
    },
    {
      "buffer": 0,
      "byteLength": 40592,
      "byteOffset": 56928,
      "byteStride": 8,
      "name": "floatBufferViews",
      "target": 34962
    },
    {
      "buffer": 0,
      "byteLength": 121776,
      "byteOffset": 97520,
      "byteStride": 12,
      "name": "floatBufferViews",
      "target": 34962
    },
    {
      "buffer": 0,
      "byteLength": 5260,
      "byteOffset": 219296,
      "name": "floatBufferViews"
    },
    {
      "buffer": 0,
      "byteLength": 15624,
      "byteOffset": 224556,
      "byteStride": 12,
      "name": "floatBufferViews"
    },
    {
      "buffer": 0,
      "byteLength": 208,
      "byteOffset": 240180,
      "byteStride": 16,
      "name": "floatBufferViews"
    }
  ],
  "buffers": [
    {
      "byteLength": 240388,
      "uri": "scene.bin"
    }
  ],
  "images": [
    {
      "uri": "textures/Font_baseColor.jpeg"
    }
  ],
  "materials": [
    {
      "doubleSided": true,
      "name": "Font",
      "pbrMetallicRoughness": {
        "baseColorTexture": {
          "index": 0
        },
        "metallicFactor": 0.0,
        "roughnessFactor": 0.7763932022500211
      }
    }
  ],
  "meshes": [
    {
      "name": "Text_Font_0",
      "primitives": [
        {
          "attributes": {
            "NORMAL": 1,
            "POSITION": 0,
            "TEXCOORD_0": 2
          },
          "indices": 3,
          "material": 0,
          "mode": 4
        }
      ]
    },
    {
      "name": "Text.001_Font_0",
      "primitives": [
        {
          "attributes": {
            "NORMAL": 5,
            "POSITION": 4,
            "TEXCOORD_0": 6
          },
          "indices": 7,
          "material": 0,
          "mode": 4
        }
      ]
    },
    {
      "name": "Text.002_Font_0",
      "primitives": [
        {
          "attributes": {
            "NORMAL": 9,
            "POSITION": 8,
            "TEXCOORD_0": 10
          },
          "indices": 11,
          "material": 0,
          "mode": 4
        }
      ]
    },
    {
      "name": "Text.003_Font_0",
      "primitives": [
        {
          "attributes": {
            "NORMAL": 13,
            "POSITION": 12,
            "TEXCOORD_0": 14
          },
          "indices": 15,
          "material": 0,
          "mode": 4
        }
      ]
    },
    {
      "name": "Text.004_Font_0",
      "primitives": [
        {
          "attributes": {
            "NORMAL": 17,
            "POSITION": 16,
            "TEXCOORD_0": 18
          },
          "indices": 19,
          "material": 0,
          "mode": 4
        }
      ]
    },
    {
      "name": "Text.005_Font_0",
      "primitives": [
        {
          "attributes": {
            "NORMAL": 21,
            "POSITION": 20,
            "TEXCOORD_0": 22
          },
          "indices": 23,
          "material": 0,
          "mode": 4
        }
      ]
    },
    {
      "name": "Text.006_Font_0",
      "primitives": [
        {
          "attributes": {
            "NORMAL": 25,
            "POSITION": 24,
            "TEXCOORD_0": 26
          },
          "indices": 27,
          "material": 0,
          "mode": 4
        }
      ]
    },
    {
      "name": "Text.007_Font_0",
      "primitives": [
        {
          "attributes": {
            "NORMAL": 29,
            "POSITION": 28,
            "TEXCOORD_0": 30
          },
          "indices": 31,
          "material": 0,
          "mode": 4
        }
      ]
    },
    {
      "name": "Text.008_Font_0",
      "primitives": [
        {
          "attributes": {
            "NORMAL": 33,
            "POSITION": 32,
            "TEXCOORD_0": 34
          },
          "indices": 35,
          "material": 0,
          "mode": 4
        }
      ]
    },
    {
      "name": "Text.009_Font_0",
      "primitives": [
        {
          "attributes": {
            "NORMAL": 37,
            "POSITION": 36,
            "TEXCOORD_0": 38
          },
          "indices": 39,
          "material": 0,
          "mode": 4
        }
      ]
    },
    {
      "name": "Text.010_Font_0",
      "primitives": [
        {
          "attributes": {
            "NORMAL": 41,
            "POSITION": 40,
            "TEXCOORD_0": 42
          },
          "indices": 43,
          "material": 0,
          "mode": 4
        }
      ]
    },
    {
      "name": "Text.011_Font_0",
      "primitives": [
        {
          "attributes": {
            "NORMAL": 45,
            "POSITION": 44,
            "TEXCOORD_0": 46
          },
          "indices": 47,
          "material": 0,
          "mode": 4
        }
      ]
    },
    {
      "name": "Text.012_Font_0",
      "primitives": [
        {
          "attributes": {
            "NORMAL": 49,
            "POSITION": 48,
            "TEXCOORD_0": 50
          },
          "indices": 51,
          "material": 0,
          "mode": 4
        }
      ]
    },
    {
      "name": "Text.013_Font_0",
      "primitives": [
        {
          "attributes": {
            "NORMAL": 53,
            "POSITION": 52,
            "TEXCOORD_0": 54
          },
          "indices": 55,
          "material": 0,
          "mode": 4
        }
      ]
    },
    {
      "name": "Text.014_Font_0",
      "primitives": [
        {
          "attributes": {
            "NORMAL": 57,
            "POSITION": 56,
            "TEXCOORD_0": 58
          },
          "indices": 59,
          "material": 0,
          "mode": 4
        }
      ]
    },
    {
      "name": "Text.015_Font_0",
      "primitives": [
        {
          "attributes": {
            "NORMAL": 61,
            "POSITION": 60,
            "TEXCOORD_0": 62
          },
          "indices": 63,
          "material": 0,
          "mode": 4
        }
      ]
    },
    {
      "name": "Text.016_Font_0",
      "primitives": [
        {
          "attributes": {
            "NORMAL": 65,
            "POSITION": 64,
            "TEXCOORD_0": 66
          },
          "indices": 67,
          "material": 0,
          "mode": 4
        }
      ]
    },
    {
      "name": "Text.017_Font_0",
      "primitives": [
        {
          "attributes": {
            "NORMAL": 69,
            "POSITION": 68,
            "TEXCOORD_0": 70
          },
          "indices": 71,
          "material": 0,
          "mode": 4
        }
      ]
    },
    {
      "name": "Text.018_Font_0",
      "primitives": [
        {
          "attributes": {
            "NORMAL": 73,
            "POSITION": 72,
            "TEXCOORD_0": 74
          },
          "indices": 75,
          "material": 0,
          "mode": 4
        }
      ]
    },
    {
      "name": "Text.019_Font_0",
      "primitives": [
        {
          "attributes": {
            "NORMAL": 77,
            "POSITION": 76,
            "TEXCOORD_0": 78
          },
          "indices": 79,
          "material": 0,
          "mode": 4
        }
      ]
    }
  ],
  "nodes": [
    {
      "children": [
        1
      ],
      "matrix": [
        1.0,
        0.0,
        0.0,
        0.0,
        0.0,
        2.220446049250313e-16,
        -1.0,
        0.0,
        0.0,
        1.0,
        2.220446049250313e-16,
        0.0,
        0.0,
        0.0,
        0.0,
        1.0
      ],
      "name": "Sketchfab_model"
    },
    {
      "children": [
        2
      ],
      "matrix": [
        0.009999999776482582,
        0.0,
        0.0,
        0.0,
        0.0,
        0.0,
        0.009999999776482582,
        0.0,
        0.0,
        -0.009999999776482582,
        0.0,
        0.0,
        0.0,
        0.0,
        0.0,
        1.0
      ],
      "name": "b2a5eb454fe7493496b1c4fff7121632.fbx"
    },
    {
      "children": [
        3
      ],
      "name": "Object_2"
    },
    {
      "children": [
        4,
        7,
        9,
        11,
        13,
        15,
        17,
        19,
        21,
        23,
        25,
        27,
        29,
        31,
        33,
        35,
        37,
        39,
        41,
        43,
        45,
        47
      ],
      "name": "RootNode"
    },
    {
      "children": [
        5
      ],
      "name": "Light",
      "rotation": [
        0.1387585997581482,
        0.8130097985267639,
        -0.28880754113197327,
        0.4861598014831543
      ],
      "scale": [
        99.99999237060547,
        100.00000762939453,
        100.00000762939453
      ],
      "translation": [
        407.6245422363281,
        590.38623046875,
        -100.54539489746094
      ]
    },
    {
      "children": [
        6
      ],
      "matrix": [
        1.0,
        0.0,
        0.0,
        0.0,
        0.0,
        2.220446049250313e-16,
        1.0,
        0.0,
        0.0,
        -1.0,
        2.220446049250313e-16,
        0.0,
        0.0,
        0.0,
        0.0,
        1.0
      ],
      "name": "Object_5"
    },
    {
      "name": "Object_6"
    },
    {
      "children": [
        8
      ],
      "name": "Camera",
      "rotation": [
        0.5000000596046448,
        -0.5000000596046448,
        0.4999999701976776,
        -0.4999999403953552
      ],
      "scale": [
        100.0,
        100.0,
        100.0
      ],
      "translation": [
        141.44650268554688,
        535.1408081054688,
        -2.8700687885284424
      ]
    },
    {
      "name": "Object_8"
    },
    {
      "children": [
        10
      ],
      "name": "Text",
      "rotation": [
        -0.7071068286895752,
        0.0,
        0.0,
        0.7071067094802856
      ],
      "scale": [
        100.0,
        100.0,
        100.0
      ],
      "translation": [
        258.0231018066406,
        -4.2948622080984933e-07,
        -24.270143508911133
      ]
    },
    {
      "mesh": 0,
      "name": "Text_Font_0"
    },
    {
      "children": [
        12
      ],
      "name": "Text.001",
      "rotation": [
        -0.7071068286895752,
        0.0,
        0.0,
        0.7071067094802856
      ],
      "scale": [
        100.0,
        100.0,
        100.0
      ],
      "translation": [
        180.38180541992188,
        4.460168270270515e-07,
        -21.075838088989258
      ]
    },
    {
      "mesh": 1,
      "name": "Text.001_Font_0"
    },
    {
      "children": [
        14
      ],
      "name": "Text.002",
      "rotation": [
        -0.7071068286895752,
        0.0,
        0.0,
        0.7071067094802856
      ],
      "scale": [
        100.0,
        100.0,
        100.0
      ],
      "translation": [
        115.00000762939453,
        -1.0193354604837168e-08,
        -25.000009536743164
      ]
    },
    {
      "mesh": 2,
      "name": "Text.002_Font_0"
    },
    {
      "children": [
        16
      ],
      "name": "Text.003",
      "rotation": [
        -0.7071068286895752,
        0.0,
        0.0,
        0.7071067094802856
      ],
      "scale": [
        100.0,
        100.0,
        100.0
      ],
      "translation": [
        35.38180160522461,
        2.0904326447634958e-07,
        -21.075836181640625
      ]
    },
    {
      "mesh": 3,
      "name": "Text.003_Font_0"
    },
    {
      "children": [
        18
      ],
      "name": "Text.004",
      "rotation": [
        -0.7071068286895752,
        0.0,
        0.0,
        0.7071067094802856
      ],
      "scale": [
        100.0,
        100.0,
        100.0
      ],
      "translation": [
        278.947998046875,
        -1.7032890653467803e-08,
        11.806838989257813
      ]
    },
    {
      "mesh": 4,
      "name": "Text.004_Font_0"
    },
    {
      "children": [
        20
      ],
      "name": "Text.005",
      "rotation": [
        -0.7071068286895752,
        0.0,
        0.0,
        0.7071067094802856
      ],
      "scale": [
        100.0,
        100.0,
        100.0
      ],
      "translation": [
        278.947998046875,
        -1.661009996212215e-08,
        20.431838989257813
      ]
    },
    {
      "mesh": 5,
      "name": "Text.005_Font_0"
    },
    {
      "children": [
        22
      ],
      "name": "Text.006",
      "rotation": [
        -0.7071068286895752,
        0.0,
        0.0,
        0.7071067094802856
      ],
      "scale": [
        100.0,
        100.0,
        100.0
      ],
      "translation": [
        265.1898498535156,
        -6.012025011159494e-08,
        15.129687309265137
      ]
    },
    {
      "mesh": 6,
      "name": "Text.006_Font_0"
    },
    {
      "children": [
        24
      ],
      "name": "Text.007",
      "rotation": [
        -0.7071068286895752,
        0.0,
        0.0,
        0.7071067094802856
      ],
      "scale": [
        100.0,
        100.0,
        100.0
      ],
      "translation": [
        247.07301330566406,
        -1.1860927351392547e-08,
        16.033203125
      ]
    },
    {
      "mesh": 7,
      "name": "Text.007_Font_0"
    },
    {
      "children": [
        26
      ],
      "name": "Text.008",
      "rotation": [
        -0.7071068286895752,
        0.0,
        0.0,
        0.7071067094802856
      ],
      "scale": [
        100.0,
        100.0,
        100.0
      ],
      "translation": [
        227.947998046875,
        -1.9956914343310928e-08,
        14.806838035583496
      ]
    },
    {
      "mesh": 8,
      "name": "Text.008_Font_0"
    },
    {
      "children": [
        28
      ],
      "name": "Text.009",
      "rotation": [
        -0.7071068286895752,
        0.0,
        0.0,
        0.7071067094802856
      ],
      "scale": [
        100.0,
        100.0,
        100.0
      ],
      "translation": [
        218.68838500976563,
        -2.0031892811189778e-10,
        14.806839942932129
      ]
    },
    {
      "mesh": 9,
      "name": "Text.009_Font_0"
    },
    {
      "children": [
        30
      ],
      "name": "Text.010",
      "rotation": [
        -0.7071068286895752,
        0.0,
        0.0,
        0.7071067094802856
      ],
      "scale": [
        100.0,
        100.0,
        100.0
      ],
      "translation": [
        202.06967163085938,
        -2.0982332316066277e-08,
        13.156172752380371
      ]
    },
    {
      "mesh": 10,
      "name": "Text.010_Font_0"
    },
    {
      "children": [
        32
      ],
      "name": "Text.011",
      "rotation": [
        -0.7071068286895752,
        0.0,
        0.0,
        0.7071067094802856
      ],
      "scale": [
        100.0,
        100.0,
        100.0
      ],
      "translation": [
        167.572998046875,
        -1.1642563357838753e-08,
        14.10852336883545
      ]
    },
    {
      "mesh": 11,
      "name": "Text.011_Font_0"
    },
    {
      "children": [
        34
      ],
      "name": "Text.012",
      "rotation": [
        -0.7071068286895752,
        0.0,
        0.0,
        0.7071067094802856
      ],
      "scale": [
        100.0,
        100.0,
        100.0
      ],
      "translation": [
        143.94801330566406,
        -2.3008089655718322e-08,
        14.806838035583496
      ]
    },
    {
      "mesh": 12,
      "name": "Text.012_Font_0"
    },
    {
      "children": [
        36
      ],
      "name": "Text.013",
      "rotation": [
        -0.7071068286895752,
        0.0,
        0.0,
        0.7071067094802856
      ],
      "scale": [
        100.0,
        100.0,
        100.0
      ],
      "translation": [
        134.68838500976563,
        1.8853766547977102e-08,
        14.806839942932129
      ]
    },
    {
      "mesh": 13,
      "name": "Text.013_Font_0"
    },
    {
      "children": [
        38
      ],
      "name": "Text.014",
      "rotation": [
        -0.7071068286895752,
        0.0,
        0.0,
        0.7071067094802856
      ],
      "scale": [
        100.0,
        100.0,
        100.0
      ],
      "translation": [
        118.072998046875,
        -1.845552333179512e-08,
        14.806838035583496
      ]
    },
    {
      "mesh": 14,
      "name": "Text.014_Font_0"
    },
    {
      "children": [
        40
      ],
      "name": "Text.015",
      "rotation": [
        -0.7071068286895752,
        0.0,
        0.0,
        0.7071067094802856
      ],
      "scale": [
        100.0,
        100.0,
        100.0
      ],
      "translation": [
        88.07032775878906,
        -1.1568390689831176e-08,
        15.532925605773926
      ]
    },
    {
      "mesh": 15,
      "name": "Text.015_Font_0"
    },
    {
      "children": [
        42
      ],
      "name": "Text.016",
      "rotation": [
        -0.7071068286895752,
        0.0,
        0.0,
        0.7071067094802856
      ],
      "scale": [
        100.0,
        100.0,
        100.0
      ],
      "translation": [
        68.1695327758789,
        3.6586865093113374e-08,
        14.557901382446289
      ]
    },
    {
      "mesh": 16,
      "name": "Text.016_Font_0"
    },
    {
      "children": [
        44
      ],
      "name": "Text.017",
      "rotation": [
        -0.7071068286895752,
        0.0,
        0.0,
        0.7071067094802856
      ],
      "scale": [
        100.0,
        100.0,
        100.0
      ],
      "translation": [
        50.169532775878906,
        -7.445507321790501e-08,
        14.557902336120605
      ]
    },
    {
      "mesh": 17,
      "name": "Text.017_Font_0"
    },
    {
      "children": [
        46
      ],
      "name": "Text.018",
      "rotation": [
        -0.7071068286895752,
        0.0,
        0.0,
        0.7071067094802856
      ],
      "scale": [
        100.0,
        100.0,
        100.0
      ],
      "translation": [
        34.0730094909668,
        -1.5357517924030617e-08,
        16.033199310302734
      ]
    },
    {
      "mesh": 18,
      "name": "Text.018_Font_0"
    },
    {
      "children": [
        48
      ],
      "name": "Text.019",
      "rotation": [
        -0.7071068286895752,
        0.0,
        0.0,
        0.7071067094802856
      ],
      "scale": [
        100.0,
        100.0,
        100.0
      ],
      "translation": [
        16.07302474975586,
        -1.522025350197964e-08,
        14.806838035583496
      ]
    },
    {
      "mesh": 19,
      "name": "Text.019_Font_0"
    }
  ],
  "samplers": [
    {
      "magFilter": 9729,
      "minFilter": 9987,
      "wrapS": 10497,
      "wrapT": 10497
    }
  ],
  "scene": 0,
  "scenes": [
    {
      "name": "Sketchfab_Scene",
      "nodes": [
        0
      ]
    }
  ],
  "textures": [
    {
      "sampler": 0,
      "source": 0
    }
  ]
}
